{
  "accessors": [
    {
      "bufferView": 2,
      "componentType": 5126,
      "count": 176,
      "max": [
        0.5,
        0.5,
        0.4999997913837433
      ],
      "min": [
        -0.5,
        -0.5,
        -1.1953825950622559
      ],
      "type": "VEC3"
    },
    {
      "bufferView": 2,
      "byteOffset": 2112,
      "componentType": 5126,
      "count": 176,
      "max": [
        0.9999880194664001,
        0.9999880194664001,
        1.0
      ],
      "min": [
        -0.9999880194664001,
        -0.9999880194664001,
        -0.9999161958694458
      ],
      "type": "VEC3"
    },
    {
      "bufferView": 1,
      "componentType": 5126,
      "count": 176,
      "max": [
        0.875,
        1.0
      ],
      "min": [
        0.125,
        -0.0
      ],
      "type": "VEC2"
    },
    {
      "bufferView": 0,
      "componentType": 5125,
      "count": 660,
      "type": "SCALAR"
    },
    {
      "bufferView": 2,
      "byteOffset": 4224,
      "componentType": 5126,
      "count": 176,
      "max": [
        0.5,
        0.5,
        0.4999997913837433
      ],
      "min": [
        -0.5,
        -0.5,
        -1.1953825950622559
      ],
      "type": "VEC3"
    },
    {
      "bufferView": 2,
      "byteOffset": 6336,
      "componentType": 5126,
      "count": 176,
      "max": [
        0.9999880194664001,
        0.9999880194664001,
        1.0
      ],
      "min": [
        -0.9999880194664001,
        -0.9999880194664001,
        -0.9999161958694458
      ],
      "type": "VEC3"
    },
    {
      "bufferView": 1,
      "byteOffset": 1408,
      "componentType": 5126,
      "count": 176,
      "max": [
        0.875,
        1.0
      ],
      "min": [
        0.125,
        -0.0
      ],
      "type": "VEC2"
    },
    {
      "bufferView": 0,
      "byteOffset": 2640,
      "componentType": 5125,
      "count": 660,
      "type": "SCALAR"
    },
    {
      "bufferView": 2,
      "byteOffset": 8448,
      "componentType": 5126,
      "count": 176,
      "max": [
        0.5,
        0.5,
        0.4999997913837433
      ],
      "min": [
        -0.5,
        -0.5,
        -1.1953825950622559
      ],
      "type": "VEC3"
    },
    {
      "bufferView": 2,
      "byteOffset": 10560,
      "componentType": 5126,
      "count": 176,
      "max": [
        0.9999880194664001,
        0.9999880194664001,
        1.0
      ],
      "min": [
        -0.9999880194664001,
        -0.9999880194664001,
        -0.9999161958694458
      ],
      "type": "VEC3"
    },
    {
      "bufferView": 1,
      "byteOffset": 2816,
      "componentType": 5126,
      "count": 176,
      "max": [
        0.875,
        1.0
      ],
      "min": [
        0.125,
        -0.0
      ],
      "type": "VEC2"
    },
    {
      "bufferView": 0,
      "byteOffset": 5280,
      "componentType": 5125,
      "count": 660,
      "type": "SCALAR"
    },
    {
      "bufferView": 2,
      "byteOffset": 12672,
      "componentType": 5126,
      "count": 8768,
      "max": [
        0.09179316461086273,
        8.599905014038086,
        2.644641399383545
      ],
      "min": [
        -0.09179316461086273,
        -8.377459526062012,
        -0.08148791640996933
      ],
      "type": "VEC3"
    },
    {
      "bufferView": 2,
      "byteOffset": 117888,
      "componentType": 5126,
      "count": 8768,
      "max": [
        1.0,
        1.0,
        1.0
      ],
      "min": [
        -1.0,
        -1.0,
        -1.0
      ],
      "type": "VEC3"
    },
    {
      "bufferView": 1,
      "byteOffset": 4224,
      "componentType": 5126,
      "count": 8768,
      "max": [
        0.875,
        1.0
      ],
      "min": [
        0.125,
        0.0
      ],
      "type": "VEC2"
    },
    {
      "bufferView": 0,
      "byteOffset": 7920,
      "componentType": 5125,
      "count": 22368,
      "type": "SCALAR"
    },
    {
      "bufferView": 2,
      "byteOffset": 223104,
      "componentType": 5126,
      "count": 96,
      "max": [
        0.5000000596046448,
        0.49999991059303284,
        0.5
      ],
      "min": [
        -0.5000000596046448,
        -0.5,
        -0.5000002384185791
      ],
      "type": "VEC3"
    },
    {
      "bufferView": 2,
      "byteOffset": 224256,
      "componentType": 5126,
      "count": 96,
      "max": [
        1.0,
        1.0,
        1.0
      ],
      "min": [
        -1.0,
        -1.0,
        -1.0
      ],
      "type": "VEC3"
    },
    {
      "bufferView": 1,
      "byteOffset": 74368,
      "componentType": 5126,
      "count": 96,
      "max": [
        0.8625012636184692,
        0.9875012636184692
      ],
      "min": [
        0.13749873638153076,
        0.0
      ],
      "type": "VEC2"
    },
    {
      "bufferView": 0,
      "byteOffset": 97392,
      "componentType": 5125,
      "count": 132,
      "type": "SCALAR"
    },
    {
      "bufferView": 2,
      "byteOffset": 225408,
      "componentType": 5126,
      "count": 8768,
      "max": [
        0.09179316461086273,
        8.599905014038086,
        2.644641399383545
      ],
      "min": [
        -0.09179316461086273,
        -8.377459526062012,
        -0.08148791640996933
      ],
      "type": "VEC3"
    },
    {
      "bufferView": 2,
      "byteOffset": 330624,
      "componentType": 5126,
      "count": 8768,
      "max": [
        1.0,
        1.0,
        1.0
      ],
      "min": [
        -1.0,
        -1.0,
        -1.0
      ],
      "type": "VEC3"
    },
    {
      "bufferView": 1,
      "byteOffset": 75136,
      "componentType": 5126,
      "count": 8768,
      "max": [
        0.875,
        1.0
      ],
      "min": [
        0.125,
        0.0
      ],
      "type": "VEC2"
    },
    {
      "bufferView": 0,
      "byteOffset": 97920,
      "componentType": 5125,
      "count": 22368,
      "type": "SCALAR"
    }
  ],
  "asset": {
    "extras": {
      "author": "Vladyslav Holhanov (https://sketchfab.com/vladicom08)",
      "license": "CC-BY-4.0 (http://creativecommons.org/licenses/by/4.0/)",
      "source": "https://sketchfab.com/3d-models/metal-bridge-3348644b348f4c46bd237e913c2884ce",
      "title": "Metal Bridge"
    },
    "generator": "Sketchfab-12.68.0",
    "version": "2.0"
  },
  "bufferViews": [
    {
      "buffer": 0,
      "byteLength": 187392,
      "name": "floatBufferViews",
      "target": 34963
    },
    {
      "buffer": 0,
      "byteLength": 145280,
      "byteOffset": 187392,
      "byteStride": 8,
      "name": "floatBufferViews",
      "target": 34962
    },
    {
      "buffer": 0,
      "byteLength": 435840,
      "byteOffset": 332672,
      "byteStride": 12,
      "name": "floatBufferViews",
      "target": 34962
    }
  ],
  "buffers": [
    {
      "byteLength": 768512,
      "uri": "scene.bin"
    }
  ],
  "materials": [
    {
      "doubleSided": true,
      "name": "lambert1",
      "pbrMetallicRoughness": {
        "baseColorFactor": [
          0.5,
          0.5,
          0.5,
          1.0
        ],
        "metallicFactor": 0.0,
        "roughnessFactor": 0.6
      }
    }
  ],
  "meshes": [
    {
      "name": "pCube4_lambert1_0",
      "primitives": [
        {
          "attributes": {
            "NORMAL": 1,
            "POSITION": 0,
            "TEXCOORD_0": 2
          },
          "indices": 3,
          "material": 0,
          "mode": 4
        }
      ]
    },
    {
      "name": "pCube3_lambert1_0",
      "primitives": [
        {
          "attributes": {
            "NORMAL": 5,
            "POSITION": 4,
            "TEXCOORD_0": 6
          },
          "indices": 7,
          "material": 0,
          "mode": 4
        }
      ]
    },
    {
      "name": "pCube2_lambert1_0",
      "primitives": [
        {
          "attributes": {
            "NORMAL": 9,
            "POSITION": 8,
            "TEXCOORD_0": 10
          },
          "indices": 11,
          "material": 0,
          "mode": 4
        }
      ]
    },
    {
      "name": "polySurface26_lambert1_0",
      "primitives": [
        {
          "attributes": {
            "NORMAL": 13,
            "POSITION": 12,
            "TEXCOORD_0": 14
          },
          "indices": 15,
          "material": 0,
          "mode": 4
        }
      ]
    },
    {
      "name": "pCube1_lambert1_0",
      "primitives": [
        {
          "attributes": {
            "NORMAL": 17,
            "POSITION": 16,
            "TEXCOORD_0": 18
          },
          "indices": 19,
          "material": 0,
          "mode": 4
        }
      ]
    },
    {
      "name": "polySurface27_lambert1_0",
      "primitives": [
        {
          "attributes": {
            "NORMAL": 21,
            "POSITION": 20,
            "TEXCOORD_0": 22
          },
          "indices": 23,
          "material": 0,
          "mode": 4
        }
      ]
    }
  ],
  "nodes": [
    {
      "children": [
        1
      ],
      "matrix": [
        1.0,
        0.0,
        0.0,
        0.0,
        0.0,
        2.220446049250313e-16,
        -1.0,
        0.0,
        0.0,
        1.0,
        2.220446049250313e-16,
        0.0,
        0.0,
        0.0,
        0.0,
        1.0
      ],
      "name": "Sketchfab_model"
    },
    {
      "children": [
        2
      ],
      "matrix": [
        1.0,
        0.0,
        0.0,
        0.0,
        0.0,
        0.0,
        1.0,
        0.0,
        0.0,
        -1.0,
        0.0,
        0.0,
        0.0,
        0.0,
        0.0,
        1.0
      ],
      "name": "744c17641b2e40a4bed494a038ee2abf.fbx"
    },
    {
      "children": [
        3
      ],
      "name": "RootNode"
    },
    {
      "children": [
        4,
        6,
        8,
        10,
        12,
        14
      ],
      "matrix": [
        1.0,
        0.0,
        0.0,
        0.0,
        0.0,
        2.220446049250313e-16,
        -1.0,
        0.0,
        0.0,
        1.0,
        2.220446049250313e-16,
        0.0,
        0.0,
        0.0,
        0.0,
        1.0
      ],
      "name": "group1"
    },
    {
      "children": [
        5
      ],
      "matrix": [
        2.2308082580566406,
        0.0,
        0.0,
        0.0,
        0.0,
        2.2308082580566406,
        0.0,
        0.0,
        0.0,
        0.0,
        2.2308082580566406,
        0.0,
        0.0,
        -6.867153167724609,
        -1.305716872215271,
        1.0
      ],
      "name": "pCube4"
    },
    {
      "mesh": 0,
      "name": "pCube4_lambert1_0"
    },
    {
      "children": [
        7
      ],
      "matrix": [
        2.2308082580566406,
        0.0,
        0.0,
        0.0,
        0.0,
        2.2308082580566406,
        0.0,
        0.0,
        0.0,
        0.0,
        2.2308082580566406,
        0.0,
        0.0,
        7.226400375366211,
        -1.305716872215271,
        1.0
      ],
      "name": "pCube3"
    },
    {
      "mesh": 1,
      "name": "pCube3_lambert1_0"
    },
    {
      "children": [
        9
      ],
      "matrix": [
        2.2308082580566406,
        0.0,
        0.0,
        0.0,
        0.0,
        2.2308082580566406,
        0.0,
        0.0,
        0.0,
        0.0,
        2.2308082580566406,
        0.0,
        0.0,
        0.0,
        -1.305716872215271,
        1.0
      ],
      "name": "pCube2"
    },
    {
      "mesh": 2,
      "name": "pCube2_lambert1_0"
    },
    {
      "children": [
        11
      ],
      "matrix": [
        1.0,
        0.0,
        0.0,
        0.0,
        0.0,
        1.0,
        0.0,
        0.0,
        0.0,
        0.0,
        1.0,
        0.0,
        -2.1005918979644775,
        0.0,
        0.0,
        1.0
      ],
      "name": "polySurface26"
    },
    {
      "mesh": 3,
      "name": "polySurface26_lambert1_0"
    },
    {
      "children": [
        13
      ],
      "matrix": [
        4.377778053283691,
        0.0,
        0.0,
        0.0,
        0.0,
        17.171764373779297,
        0.0,
        0.0,
        0.0,
        0.0,
        0.19032475352287292,
        0.0,
        0.0,
        0.07752081751823425,
        -0.12820054590702057,
        1.0
      ],
      "name": "pCube1"
    },
    {
      "mesh": 4,
      "name": "pCube1_lambert1_0"
    },
    {
      "children": [
        15
      ],
      "matrix": [
        1.0,
        0.0,
        0.0,
        0.0,
        0.0,
        1.0,
        0.0,
        0.0,
        0.0,
        0.0,
        1.0,
        0.0,
        2.113710403442383,
        0.0,
        0.0,
        1.0
      ],
      "name": "polySurface27"
    },
    {
      "mesh": 5,
      "name": "polySurface27_lambert1_0"
    }
  ],
  "scene": 0,
  "scenes": [
    {
      "name": "Sketchfab_Scene",
      "nodes": [
        0
      ]
    }
  ]
}
