{
  "accessors": [
    {
      "bufferView": 2,
      "componentType": 5126,
      "count": 8,
      "max": [
        1.0487325191497803,
        -1.2410557270050049,
        4.120089054107666
      ],
      "min": [
        -1.0487325191497803,
        -1.7659976482391357,
        3.605782985687256
      ],
      "type": "VEC3"
    },
    {
      "bufferView": 2,
      "byteOffset": 96,
      "componentType": 5126,
      "count": 8,
      "max": [
        0.05072914808988571,
        -0.7310804128646851,
        0.6804028153419495
      ],
      "min": [
        -0.0507291741669178,
        -0.7310804128646851,
        0.6804028153419495
      ],
      "type": "VEC3"
    },
    {
      "bufferView": 1,
      "componentType": 5126,
      "count": 8,
      "max": [
        1.0,
        0.0
      ],
      "min": [
        0.0,
        -1.0
      ],
      "type": "VEC2"
    },
    {
      "bufferView": 0,
      "componentType": 5125,
      "count": 12,
      "type": "SCALAR"
    },
    {
      "bufferView": 2,
      "byteOffset": 192,
      "componentType": 5126,
      "count": 6602,
      "max": [
        3.4554240703582764,
        7.57289457321167,
        4.857605934143066
      ],
      "min": [
        -3.4554240703582764,
        -7.572896480560303,
        0.1499498337507248
      ],
      "type": "VEC3"
    },
    {
      "bufferView": 2,
      "byteOffset": 79416,
      "componentType": 5126,
      "count": 6602,
      "max": [
        1.0,
        1.0,
        1.0
      ],
      "min": [
        -1.0,
        -1.0,
        -1.0
      ],
      "type": "VEC3"
    },
    {
      "bufferView": 1,
      "byteOffset": 64,
      "componentType": 5126,
      "count": 6602,
      "max": [
        0.9993060231208801,
        -0.0012750029563903809
      ],
      "min": [
        0.0010460000485181808,
        -0.9991210103034973
      ],
      "type": "VEC2"
    },
    {
      "bufferView": 0,
      "byteOffset": 48,
      "componentType": 5125,
      "count": 20268,
      "type": "SCALAR"
    },
    {
      "bufferView": 2,
      "byteOffset": 158640,
      "componentType": 5126,
      "count": 48,
      "max": [
        2.284259080886841,
        -0.44570285081863403,
        4.639540195465088
      ],
      "min": [
        -2.284259080886841,
        -2.0332345962524414,
        3.284404754638672
      ],
      "type": "VEC3"
    },
    {
      "bufferView": 2,
      "byteOffset": 159216,
      "componentType": 5126,
      "count": 48,
      "max": [
        0.4759860634803772,
        -0.4704688787460327,
        0.7430318593978882
      ],
      "min": [
        -0.4759870171546936,
        -0.7307461500167847,
        0.6826493740081787
      ],
      "type": "VEC3"
    },
    {
      "bufferView": 1,
      "byteOffset": 52880,
      "componentType": 5126,
      "count": 48,
      "max": [
        3.7171359062194824,
        0.8513840436935425
      ],
      "min": [
        -2.717134952545166,
        -2.102221965789795
      ],
      "type": "VEC2"
    },
    {
      "bufferView": 0,
      "byteOffset": 81120,
      "componentType": 5125,
      "count": 192,
      "type": "SCALAR"
    },
    {
      "bufferView": 2,
      "byteOffset": 159792,
      "componentType": 5126,
      "count": 58,
      "max": [
        2.5810999870300293,
        4.97374153137207,
        4.523082733154297
      ],
      "min": [
        -2.5810999870300293,
        -1.107895016670227,
        3.2964119911193848
      ],
      "type": "VEC3"
    },
    {
      "bufferView": 2,
      "byteOffset": 160488,
      "componentType": 5126,
      "count": 58,
      "max": [
        0.9590466618537903,
        0.2869412302970886,
        0.962688684463501
      ],
      "min": [
        -0.9590465426445007,
        -0.00454592052847147,
        0.2637856602668762
      ],
      "type": "VEC3"
    },
    {
      "bufferView": 1,
      "byteOffset": 53264,
      "componentType": 5126,
      "count": 58,
      "max": [
        -0.000577000027988106,
        1.0020060539245605
      ],
      "min": [
        -1.0005769729614258,
        -1.0
      ],
      "type": "VEC2"
    },
    {
      "bufferView": 0,
      "byteOffset": 81888,
      "componentType": 5125,
      "count": 156,
      "type": "SCALAR"
    },
    {
      "bufferView": 2,
      "byteOffset": 161184,
      "componentType": 5126,
      "count": 5628,
      "max": [
        3.365082025527954,
        5.451352119445801,
        2.3253707885742188
      ],
      "min": [
        -3.365082025527954,
        -5.892276763916016,
        -0.6000298261642456
      ],
      "type": "VEC3"
    },
    {
      "bufferView": 2,
      "byteOffset": 228720,
      "componentType": 5126,
      "count": 5628,
      "max": [
        1.0,
        1.0,
        1.0
      ],
      "min": [
        -1.0,
        -1.0,
        -1.0
      ],
      "type": "VEC3"
    },
    {
      "bufferView": 1,
      "byteOffset": 53728,
      "componentType": 5126,
      "count": 5628,
      "max": [
        2.0,
        -0.002375006675720215
      ],
      "min": [
        -1.0,
        -0.9942229986190796
      ],
      "type": "VEC2"
    },
    {
      "bufferView": 0,
      "byteOffset": 82512,
      "componentType": 5125,
      "count": 13872,
      "type": "SCALAR"
    },
    {
      "bufferView": 2,
      "byteOffset": 296256,
      "componentType": 5126,
      "count": 68,
      "max": [
        2.4671149253845215,
        3.47906231880188,
        4.372442245483398
      ],
      "min": [
        -2.4671149253845215,
        1.693872332572937,
        3.518071174621582
      ],
      "type": "VEC3"
    },
    {
      "bufferView": 2,
      "byteOffset": 297072,
      "componentType": 5126,
      "count": 68,
      "max": [
        0.9188104867935181,
        0.31230783462524414,
        0.9016355872154236
      ],
      "min": [
        -0.9188104867935181,
        -0.9968796372413635,
        -0.5487460494041443
      ],
      "type": "VEC3"
    },
    {
      "bufferView": 1,
      "byteOffset": 98752,
      "componentType": 5126,
      "count": 68,
      "max": [
        1.0,
        0.0
      ],
      "min": [
        0.0,
        -1.0
      ],
      "type": "VEC2"
    },
    {
      "bufferView": 0,
      "byteOffset": 138000,
      "componentType": 5125,
      "count": 168,
      "type": "SCALAR"
    }
  ],
  "asset": {
    "extras": {
      "author": "Kyle.withem (https://sketchfab.com/Kyle.withem)",
      "license": "CC-BY-4.0 (http://creativecommons.org/licenses/by/4.0/)",
      "source": "https://sketchfab.com/3d-models/lightning-mcqueen-xbox-360-model-c2f08a839595474baa243bcf57829a9c",
      "title": "Lightning McQueen Xbox 360 Model"
    },
    "generator": "Sketchfab-14.48.0",
    "version": "2.0"
  },
  "bufferViews": [
    {
      "buffer": 0,
      "byteLength": 138672,
      "name": "floatBufferViews",
      "target": 34963
    },
    {
      "buffer": 0,
      "byteLength": 99296,
      "byteOffset": 138672,
      "byteStride": 8,
      "name": "floatBufferViews",
      "target": 34962
    },
    {
      "buffer": 0,
      "byteLength": 297888,
      "byteOffset": 237968,
      "byteStride": 12,
      "name": "floatBufferViews",
      "target": 34962
    }
  ],
  "buffers": [
    {
      "byteLength": 535856,
      "uri": "scene.bin"
    }
  ],
  "images": [
    {
      "uri": "textures/McQ_Eye_baseColor.png"
    },
    {
      "uri": "textures/mcq_body_baseColor.png"
    },
    {
      "uri": "textures/mcq_body_metallicRoughness.png"
    },
    {
      "uri": "textures/mcq_glass_baseColor.png"
    },
    {
      "uri": "textures/mcq_tires_baseColor.png"
    },
    {
      "uri": "textures/mcq_window_bolts_baseColor.png"
    }
  ],
  "materials": [
    {
      "doubleSided": true,
      "name": "McQ_Eye",
      "pbrMetallicRoughness": {
        "baseColorTexture": {
          "index": 0
        },
        "metallicFactor": 0.0
      }
    },
    {
      "doubleSided": true,
      "name": "mcq_body",
      "pbrMetallicRoughness": {
        "baseColorTexture": {
          "index": 1
        },
        "metallicFactor": 0.0,
        "metallicRoughnessTexture": {
          "index": 2
        }
      }
    },
    {
      "doubleSided": true,
      "name": "mcq_eye",
      "pbrMetallicRoughness": {
        "metallicFactor": 0.0
      }
    },
    {
      "alphaMode": "BLEND",
      "doubleSided": true,
      "name": "mcq_glass",
      "pbrMetallicRoughness": {
        "baseColorFactor": [
          1.0,
          1.0,
          1.0,
          0.20837887067395264
        ],
        "baseColorTexture": {
          "index": 3
        },
        "metallicFactor": 0.0
      }
    },
    {
      "doubleSided": true,
      "name": "mcq_tires",
      "pbrMetallicRoughness": {
        "baseColorTexture": {
          "index": 4
        },
        "metallicFactor": 0.0
      }
    },
    {
      "alphaMode": "BLEND",
      "doubleSided": true,
      "name": "mcq_window_bolts",
      "pbrMetallicRoughness": {
        "baseColorFactor": [
          1.0,
          1.0,
          1.0,
          0.26666666666666666
        ],
        "baseColorTexture": {
          "index": 5
        },
        "metallicFactor": 0.0
      }
    }
  ],
  "meshes": [
    {
      "name": "Object_0",
      "primitives": [
        {
          "attributes": {
            "NORMAL": 1,
            "POSITION": 0,
            "TEXCOORD_0": 2
          },
          "indices": 3,
          "material": 0,
          "mode": 4
        }
      ]
    },
    {
      "name": "Object_1",
      "primitives": [
        {
          "attributes": {
            "NORMAL": 5,
            "POSITION": 4,
            "TEXCOORD_0": 6
          },
          "indices": 7,
          "material": 1,
          "mode": 4
        }
      ]
    },
    {
      "name": "Object_2",
      "primitives": [
        {
          "attributes": {
            "NORMAL": 9,
            "POSITION": 8,
            "TEXCOORD_0": 10
          },
          "indices": 11,
          "material": 2,
          "mode": 4
        }
      ]
    },
    {
      "name": "Object_3",
      "primitives": [
        {
          "attributes": {
            "NORMAL": 13,
            "POSITION": 12,
            "TEXCOORD_0": 14
          },
          "indices": 15,
          "material": 3,
          "mode": 4
        }
      ]
    },
    {
      "name": "Object_4",
      "primitives": [
        {
          "attributes": {
            "NORMAL": 17,
            "POSITION": 16,
            "TEXCOORD_0": 18
          },
          "indices": 19,
          "material": 4,
          "mode": 4
        }
      ]
    },
    {
      "name": "Object_5",
      "primitives": [
        {
          "attributes": {
            "NORMAL": 21,
            "POSITION": 20,
            "TEXCOORD_0": 22
          },
          "indices": 23,
          "material": 5,
          "mode": 4
        }
      ]
    }
  ],
  "nodes": [
    {
      "children": [
        1
      ],
      "matrix": [
        1.0,
        0.0,
        0.0,
        0.0,
        0.0,
        2.220446049250313e-16,
        -1.0,
        0.0,
        0.0,
        1.0,
        2.220446049250313e-16,
        0.0,
        0.0,
        0.0,
        0.0,
        1.0
      ],
      "name": "Sketchfab_model"
    },
    {
      "children": [
        2,
        3,
        4,
        5,
        6,
        7
      ],
      "name": "model.obj.cleaner.materialmerger.gles"
    },
    {
      "mesh": 0,
      "name": "Object_2"
    },
    {
      "mesh": 1,
      "name": "Object_3"
    },
    {
      "mesh": 2,
      "name": "Object_4"
    },
    {
      "mesh": 3,
      "name": "Object_5"
    },
    {
      "mesh": 4,
      "name": "Object_6"
    },
    {
      "mesh": 5,
      "name": "Object_7"
    }
  ],
  "samplers": [
    {
      "magFilter": 9729,
      "minFilter": 9987,
      "wrapS": 10497,
      "wrapT": 10497
    }
  ],
  "scene": 0,
  "scenes": [
    {
      "name": "Sketchfab_Scene",
      "nodes": [
        0
      ]
    }
  ],
  "textures": [
    {
      "sampler": 0,
      "source": 0
    },
    {
      "sampler": 0,
      "source": 1
    },
    {
      "sampler": 0,
      "source": 2
    },
    {
      "sampler": 0,
      "source": 3
    },
    {
      "sampler": 0,
      "source": 4
    },
    {
      "sampler": 0,
      "source": 5
    }
  ]
}
