{
  "accessors": [
    {
      "bufferView": 2,
      "componentType": 5126,
      "count": 35,
      "max": [
        0.34673601388931274,
        -0.1451600044965744,
        2.9827980995178223
      ],
      "min": [
        -0.37328600883483887,
        -0.28029701113700867,
        2.727647066116333
      ],
      "type": "VEC3"
    },
    {
      "bufferView": 2,
      "byteOffset": 420,
      "componentType": 5126,
      "count": 35,
      "max": [
        0.9851889610290527,
        0.9963631629943848,
        0.6251012086868286
      ],
      "min": [
        -0.9784746766090393,
        -0.11860188096761703,
        -0.9970477819442749
      ],
      "type": "VEC3"
    },
    {
      "bufferView": 1,
      "componentType": 5126,
      "count": 35,
      "max": [
        0.932200014591217,
        0.9225000143051147
      ],
      "min": [
        0.14000000059604645,
        0.16949999332427979
      ],
      "type": "VEC2"
    },
    {
      "bufferView": 0,
      "componentType": 5125,
      "count": 114,
      "type": "SCALAR"
    },
    {
      "bufferView": 2,
      "byteOffset": 840,
      "componentType": 5126,
      "count": 524,
      "max": [
        0.36731600761413574,
        1.2635079622268677,
        2.19624400138855
      ],
      "min": [
        -0.36709800362586975,
        -0.3995639979839325,
        -0.003900999901816249
      ],
      "type": "VEC3"
    },
    {
      "bufferView": 2,
      "byteOffset": 7128,
      "componentType": 5126,
      "count": 524,
      "max": [
        0.999862790107727,
        0.9999881386756897,
        0.9937731027603149
      ],
      "min": [
        -0.9995735287666321,
        -0.9998158812522888,
        -0.9993442893028259
      ],
      "type": "VEC3"
    },
    {
      "bufferView": 1,
      "byteOffset": 280,
      "componentType": 5126,
      "count": 524,
      "max": [
        2.9921000003814697,
        1.2680000066757202
      ],
      "min": [
        0.15360000729560852,
        -0.05249999836087227
      ],
      "type": "VEC2"
    },
    {
      "bufferView": 0,
      "byteOffset": 456,
      "componentType": 5125,
      "count": 1518,
      "type": "SCALAR"
    },
    {
      "bufferView": 2,
      "byteOffset": 13416,
      "componentType": 5126,
      "count": 558,
      "max": [
        0.3838149905204773,
        -0.0871329978108406,
        2.8217740058898926
      ],
      "min": [
        -0.37249401211738586,
        -0.7616109848022461,
        -0.005442999769002199
      ],
      "type": "VEC3"
    },
    {
      "bufferView": 2,
      "byteOffset": 20112,
      "componentType": 5126,
      "count": 558,
      "max": [
        0.999716579914093,
        0.9992002844810486,
        0.9943220615386963
      ],
      "min": [
        -0.9982200264930725,
        -0.9960290789604187,
        -0.9986153244972229
      ],
      "type": "VEC3"
    },
    {
      "bufferView": 1,
      "byteOffset": 4472,
      "componentType": 5126,
      "count": 558,
      "max": [
        2.3013999462127686,
        1.957800030708313
      ],
      "min": [
        -0.8816999793052673,
        0.009399999864399433
      ],
      "type": "VEC2"
    },
    {
      "bufferView": 0,
      "byteOffset": 6528,
      "componentType": 5125,
      "count": 1812,
      "type": "SCALAR"
    },
    {
      "bufferView": 2,
      "byteOffset": 26808,
      "componentType": 5126,
      "count": 297,
      "max": [
        0.8151130080223083,
        1.3389110565185547,
        3.0656509399414063
      ],
      "min": [
        -0.8266760110855103,
        -0.5234619975090027,
        0.31081101298332214
      ],
      "type": "VEC3"
    },
    {
      "bufferView": 2,
      "byteOffset": 30372,
      "componentType": 5126,
      "count": 297,
      "max": [
        0.9417977333068848,
        0.9997350573539734,
        0.9962779879570007
      ],
      "min": [
        -0.983690619468689,
        -0.9903717637062073,
        -0.9983325004577637
      ],
      "type": "VEC3"
    },
    {
      "bufferView": 1,
      "byteOffset": 8936,
      "componentType": 5126,
      "count": 297,
      "max": [
        1.861199975013733,
        0.9919000267982483
      ],
      "min": [
        -0.5394999980926514,
        -0.0007999999797903001
      ],
      "type": "VEC2"
    },
    {
      "bufferView": 0,
      "byteOffset": 13776,
      "componentType": 5125,
      "count": 912,
      "type": "SCALAR"
    },
    {
      "bufferView": 2,
      "byteOffset": 33936,
      "componentType": 5126,
      "count": 653,
      "max": [
        0.6259819865226746,
        0.20354600250720978,
        2.1013529300689697
      ],
      "min": [
        -0.702472984790802,
        -0.3729200065135956,
        -0.005442999769002199
      ],
      "type": "VEC3"
    },
    {
      "bufferView": 2,
      "byteOffset": 41772,
      "componentType": 5126,
      "count": 653,
      "max": [
        0.9975637197494507,
        0.9999642372131348,
        0.9824647903442383
      ],
      "min": [
        -0.9995711445808411,
        -0.9996431469917297,
        -0.9920425415039063
      ],
      "type": "VEC3"
    },
    {
      "bufferView": 1,
      "byteOffset": 11312,
      "componentType": 5126,
      "count": 653,
      "max": [
        1.9946999549865723,
        -0.011500000022351742
      ],
      "min": [
        -0.9476000070571899,
        -1.9472999572753906
      ],
      "type": "VEC2"
    },
    {
      "bufferView": 0,
      "byteOffset": 17424,
      "componentType": 5125,
      "count": 1530,
      "type": "SCALAR"
    }
  ],
  "asset": {
    "extras": {
      "author": "Kyle.withem (https://sketchfab.com/Kyle.withem)",
      "license": "CC-BY-4.0 (http://creativecommons.org/licenses/by/4.0/)",
      "source": "https://sketchfab.com/3d-models/alex-from-madagascar-gamecube-94f75420b5f1458f9ca37db35d34f8ca",
      "title": "Alex From Madagascar GameCube"
    },
    "generator": "Sketchfab-14.48.0",
    "version": "2.0"
  },
  "bufferViews": [
    {
      "buffer": 0,
      "byteLength": 23544,
      "name": "floatBufferViews",
      "target": 34963
    },
    {
      "buffer": 0,
      "byteLength": 16536,
      "byteOffset": 23544,
      "byteStride": 8,
      "name": "floatBufferViews",
      "target": 34962
    },
    {
      "buffer": 0,
      "byteLength": 49608,
      "byteOffset": 40080,
      "byteStride": 12,
      "name": "floatBufferViews",
      "target": 34962
    }
  ],
  "buffers": [
    {
      "byteLength": 89688,
      "uri": "scene.bin"
    }
  ],
  "images": [
    {
      "uri": "textures/Tex_0291_0.dds_baseColor.png"
    },
    {
      "uri": "textures/Tex_0292_0.dds_baseColor.png"
    },
    {
      "uri": "textures/Tex_0293_0.dds_baseColor.png"
    },
    {
      "uri": "textures/Tex_0295_0.dds_baseColor.png"
    },
    {
      "uri": "textures/Tex_0296_0.dds_baseColor.png"
    }
  ],
  "materials": [
    {
      "doubleSided": true,
      "name": "Tex_0291_0.dds",
      "pbrMetallicRoughness": {
        "baseColorTexture": {
          "index": 0
        },
        "metallicFactor": 0.0,
        "roughnessFactor": 0.6
      }
    },
    {
      "doubleSided": true,
      "name": "Tex_0292_0.dds",
      "pbrMetallicRoughness": {
        "baseColorTexture": {
          "index": 1
        },
        "metallicFactor": 0.0,
        "roughnessFactor": 0.6
      }
    },
    {
      "doubleSided": true,
      "name": "Tex_0293_0.dds",
      "pbrMetallicRoughness": {
        "baseColorTexture": {
          "index": 2
        },
        "metallicFactor": 0.0,
        "roughnessFactor": 0.6
      }
    },
    {
      "doubleSided": true,
      "name": "Tex_0295_0.dds",
      "pbrMetallicRoughness": {
        "baseColorTexture": {
          "index": 3
        },
        "metallicFactor": 0.0,
        "roughnessFactor": 0.6
      }
    },
    {
      "doubleSided": true,
      "name": "Tex_0296_0.dds",
      "pbrMetallicRoughness": {
        "baseColorTexture": {
          "index": 4
        },
        "metallicFactor": 0.0,
        "roughnessFactor": 0.6
      }
    }
  ],
  "meshes": [
    {
      "name": "Object_0",
      "primitives": [
        {
          "attributes": {
            "NORMAL": 1,
            "POSITION": 0,
            "TEXCOORD_0": 2
          },
          "indices": 3,
          "material": 0,
          "mode": 4
        }
      ]
    },
    {
      "name": "Object_1",
      "primitives": [
        {
          "attributes": {
            "NORMAL": 5,
            "POSITION": 4,
            "TEXCOORD_0": 6
          },
          "indices": 7,
          "material": 1,
          "mode": 4
        }
      ]
    },
    {
      "name": "Object_2",
      "primitives": [
        {
          "attributes": {
            "NORMAL": 9,
            "POSITION": 8,
            "TEXCOORD_0": 10
          },
          "indices": 11,
          "material": 2,
          "mode": 4
        }
      ]
    },
    {
      "name": "Object_3",
      "primitives": [
        {
          "attributes": {
            "NORMAL": 13,
            "POSITION": 12,
            "TEXCOORD_0": 14
          },
          "indices": 15,
          "material": 3,
          "mode": 4
        }
      ]
    },
    {
      "name": "Object_4",
      "primitives": [
        {
          "attributes": {
            "NORMAL": 17,
            "POSITION": 16,
            "TEXCOORD_0": 18
          },
          "indices": 19,
          "material": 4,
          "mode": 4
        }
      ]
    }
  ],
  "nodes": [
    {
      "children": [
        1
      ],
      "matrix": [
        1.0,
        0.0,
        0.0,
        0.0,
        0.0,
        2.220446049250313e-16,
        -1.0,
        0.0,
        0.0,
        1.0,
        2.220446049250313e-16,
        0.0,
        0.0,
        0.0,
        0.0,
        1.0
      ],
      "name": "Sketchfab_model"
    },
    {
      "children": [
        2,
        3,
        4,
        5,
        6
      ],
      "name": "0f830d71654a4fadabfbf05fed956cef.obj.cleaner.materialmerger.gles"
    },
    {
      "mesh": 0,
      "name": "Object_2"
    },
    {
      "mesh": 1,
      "name": "Object_3"
    },
    {
      "mesh": 2,
      "name": "Object_4"
    },
    {
      "mesh": 3,
      "name": "Object_5"
    },
    {
      "mesh": 4,
      "name": "Object_6"
    }
  ],
  "samplers": [
    {
      "magFilter": 9729,
      "minFilter": 9987,
      "wrapS": 10497,
      "wrapT": 10497
    }
  ],
  "scene": 0,
  "scenes": [
    {
      "name": "Sketchfab_Scene",
      "nodes": [
        0
      ]
    }
  ],
  "textures": [
    {
      "sampler": 0,
      "source": 0
    },
    {
      "sampler": 0,
      "source": 1
    },
    {
      "sampler": 0,
      "source": 2
    },
    {
      "sampler": 0,
      "source": 3
    },
    {
      "sampler": 0,
      "source": 4
    }
  ]
}
