{
  "accessors": [
    {
      "bufferView": 3,
      "componentType": 5126,
      "count": 896,
      "max": [
        0.09727849066257477,
        0.4517943561077118,
        0.3735944926738739
      ],
      "min": [
        -0.09727849066257477,
        -0.4720344543457031,
        -0.16820958256721497
      ],
      "type": "VEC3"
    },
    {
      "bufferView": 3,
      "byteOffset": 10752,
      "componentType": 5126,
      "count": 896,
      "max": [
        1.0,
        0.9563870429992676,
        1.0
      ],
      "min": [
        -1.0,
        -1.0,
        -1.0
      ],
      "type": "VEC3"
    },
    {
      "bufferView": 2,
      "componentType": 5126,
      "count": 896,
      "max": [
        0.9885408282279968,
        0.9844085574150085
      ],
      "min": [
        0.01539010088890791,
        0.023222144693136215
      ],
      "type": "VEC2"
    },
    {
      "bufferView": 1,
      "componentType": 5125,
      "count": 1332,
      "type": "SCALAR"
    },
    {
      "bufferView": 3,
      "byteOffset": 21504,
      "componentType": 5126,
      "count": 80,
      "max": [
        0.0868782103061676,
        0.4539586007595062,
        0.25980061292648315
      ],
      "min": [
        -0.0868782103061676,
        0.4183110296726227,
        0.24504335224628448
      ],
      "type": "VEC3"
    },
    {
      "bufferView": 3,
      "byteOffset": 22464,
      "componentType": 5126,
      "count": 80,
      "max": [
        0.9645510315895081,
        0.9794377684593201,
        0.9768263101577759
      ],
      "min": [
        -0.9645510315895081,
        -0.9926900267601013,
        -0.9768262505531311
      ],
      "type": "VEC3"
    },
    {
      "bufferView": 2,
      "byteOffset": 7168,
      "componentType": 5126,
      "count": 80,
      "max": [
        0.40104618668556213,
        0.9821667075157166
      ],
      "min": [
        0.11449810862541199,
        0.8971630930900574
      ],
      "type": "VEC2"
    },
    {
      "bufferView": 1,
      "byteOffset": 5328,
      "componentType": 5125,
      "count": 120,
      "type": "SCALAR"
    },
    {
      "bufferView": 3,
      "byteOffset": 23424,
      "componentType": 5126,
      "count": 48,
      "max": [
        0.031952500343322754,
        0.47283875942230225,
        0.2621917426586151
      ],
      "min": [
        -0.031952500343322754,
        0.43638262152671814,
        0.24912528693675995
      ],
      "type": "VEC3"
    },
    {
      "bufferView": 3,
      "byteOffset": 24000,
      "componentType": 5126,
      "count": 48,
      "max": [
        0.9766091108322144,
        0.955824077129364,
        0.996670126914978
      ],
      "min": [
        -0.9766091108322144,
        -0.9558241367340088,
        -0.996670126914978
      ],
      "type": "VEC3"
    },
    {
      "bufferView": 2,
      "byteOffset": 7808,
      "componentType": 5126,
      "count": 48,
      "max": [
        0.6888799071311951,
        0.6713763475418091
      ],
      "min": [
        0.5638442635536194,
        0.5339583158493042
      ],
      "type": "VEC2"
    },
    {
      "bufferView": 1,
      "byteOffset": 5808,
      "componentType": 5125,
      "count": 72,
      "type": "SCALAR"
    },
    {
      "bufferView": 5,
      "componentType": 5126,
      "count": 17,
      "max": [
        1.0000001192092896,
        0.04321170598268509,
        0.05961258336901665,
        0.0,
        0.05961247906088829,
        1.0,
        0.13369432091712952,
        0.0,
        0.04321156442165375,
        0.9982180595397949,
        1.0,
        0.0,
        0.10027356445789337,
        0.1321393847465515,
        0.4657230079174042,
        1.0
      ],
      "min": [
        0.9972858428955078,
        -0.04321170598268509,
        -0.05961258336901665,
        0.0,
        -0.05961247906088829,
        -0.996425449848175,
        -0.9982149600982666,
        0.0,
        -0.04321156442165375,
        -0.13362334668636322,
        -0.9964286684989929,
        0.0,
        -0.10027356445789337,
        -0.42122015357017517,
        -0.2566830813884735,
        1.0
      ],
      "type": "MAT4"
    },
    {
      "bufferView": 0,
      "componentType": 5123,
      "count": 896,
      "type": "VEC4"
    },
    {
      "bufferView": 4,
      "componentType": 5126,
      "count": 896,
      "max": [
        1.0,
        0.49603837728500366,
        0.3025226593017578,
        0.13170038163661957
      ],
      "min": [
        0.3842473328113556,
        0.0,
        0.0,
        0.0
      ],
      "type": "VEC4"
    },
    {
      "bufferView": 6,
      "componentType": 5126,
      "count": 80,
      "max": [
        4.0
      ],
      "min": [
        0.05000000074505806
      ],
      "type": "SCALAR"
    },
    {
      "bufferView": 8,
      "componentType": 5126,
      "count": 80,
      "max": [
        -0.25009605288505554,
        0.33774033188819885,
        0.1301054060459137,
        0.9611555933952332
      ],
      "min": [
        -0.2759458124637604,
        -0.17297020554542542,
        -0.2540428340435028,
        0.8711174726486206
      ],
      "type": "VEC4"
    },
    {
      "bufferView": 6,
      "byteOffset": 320,
      "componentType": 5126,
      "count": 78,
      "max": [
        4.0
      ],
      "min": [
        0.05000000074505806
      ],
      "type": "SCALAR"
    },
    {
      "bufferView": 7,
      "componentType": 5126,
      "count": 78,
      "max": [
        1.0,
        0.9999998807907104,
        1.0
      ],
      "min": [
        0.9999998807907104,
        0.9999996423721313,
        0.9999997615814209
      ],
      "type": "VEC3"
    },
    {
      "bufferView": 6,
      "byteOffset": 632,
      "componentType": 5126,
      "count": 80,
      "max": [
        4.0
      ],
      "min": [
        0.05000000074505806
      ],
      "type": "SCALAR"
    },
    {
      "bufferView": 7,
      "byteOffset": 936,
      "componentType": 5126,
      "count": 80,
      "max": [
        2.9802322387695313e-08,
        0.34829822182655334,
        2.3650882141623697e-08
      ],
      "min": [
        -2.2351740014414645e-08,
        0.34829816222190857,
        -4.601012548732797e-08
      ],
      "type": "VEC3"
    },
    {
      "bufferView": 6,
      "byteOffset": 952,
      "componentType": 5126,
      "count": 80,
      "max": [
        4.0
      ],
      "min": [
        0.05000000074505806
      ],
      "type": "SCALAR"
    },
    {
      "bufferView": 8,
      "byteOffset": 1280,
      "componentType": 5126,
      "count": 80,
      "max": [
        0.6910680532455444,
        -1.5274967779532744e-07,
        2.0356729635295778e-08,
        0.7227897047996521
      ],
      "min": [
        0.6910680532455444,
        -1.8835410742212844e-07,
        -1.4837961082037054e-08,
        0.7227897047996521
      ],
      "type": "VEC4"
    },
    {
      "bufferView": 6,
      "byteOffset": 1272,
      "componentType": 5126,
      "count": 80,
      "max": [
        4.0
      ],
      "min": [
        0.05000000074505806
      ],
      "type": "SCALAR"
    },
    {
      "bufferView": 7,
      "byteOffset": 1896,
      "componentType": 5126,
      "count": 80,
      "max": [
        1.0000001192092896,
        1.0,
        1.0
      ],
      "min": [
        0.9999998807907104,
        0.9999997615814209,
        0.9999999403953552
      ],
      "type": "VEC3"
    }
  ],
  "animations": [
    {
      "channels": [
        {
          "sampler": 0,
          "target": {
            "node": 10,
            "path": "rotation"
          }
        },
        {
          "sampler": 1,
          "target": {
            "node": 10,
            "path": "scale"
          }
        },
        {
          "sampler": 2,
          "target": {
            "node": 11,
            "path": "translation"
          }
        },
        {
          "sampler": 3,
          "target": {
            "node": 11,
            "path": "rotation"
          }
        },
        {
          "sampler": 4,
          "target": {
            "node": 11,
            "path": "scale"
          }
        }
      ],
      "name": "Giraffe ArmatureAction",
      "samplers": [
        {
          "input": 15,
          "interpolation": "LINEAR",
          "output": 16
        },
        {
          "input": 17,
          "interpolation": "LINEAR",
          "output": 18
        },
        {
          "input": 19,
          "interpolation": "LINEAR",
          "output": 20
        },
        {
          "input": 21,
          "interpolation": "LINEAR",
          "output": 22
        },
        {
          "input": 23,
          "interpolation": "LINEAR",
          "output": 24
        }
      ]
    }
  ],
  "asset": {
    "extras": {
      "author": "Friendl-e-Duck (https://sketchfab.com/friendl-e-duck)",
      "license": "CC-BY-4.0 (http://creativecommons.org/licenses/by/4.0/)",
      "source": "https://sketchfab.com/3d-models/download-low-poly-giraffe-ad1f86104e5d4133a2ac3d99c0bc241f",
      "title": "[Download] Low Poly Giraffe"
    },
    "generator": "Sketchfab-12.68.0",
    "version": "2.0"
  },
  "bufferViews": [
    {
      "buffer": 0,
      "byteLength": 7168,
      "byteStride": 8,
      "name": "shortBufferViews",
      "target": 34962
    },
    {
      "buffer": 0,
      "byteLength": 6096,
      "byteOffset": 7168,
      "name": "floatBufferViews",
      "target": 34963
    },
    {
      "buffer": 0,
      "byteLength": 8192,
      "byteOffset": 13264,
      "byteStride": 8,
      "name": "floatBufferViews",
      "target": 34962
    },
    {
      "buffer": 0,
      "byteLength": 24576,
      "byteOffset": 21456,
      "byteStride": 12,
      "name": "floatBufferViews",
      "target": 34962
    },
    {
      "buffer": 0,
      "byteLength": 14336,
      "byteOffset": 46032,
      "byteStride": 16,
      "name": "floatBufferViews",
      "target": 34962
    },
    {
      "buffer": 0,
      "byteLength": 1088,
      "byteOffset": 60368,
      "name": "floatBufferViews"
    },
    {
      "buffer": 0,
      "byteLength": 1592,
      "byteOffset": 61456,
      "name": "floatBufferViews"
    },
    {
      "buffer": 0,
      "byteLength": 2856,
      "byteOffset": 63048,
      "byteStride": 12,
      "name": "floatBufferViews"
    },
    {
      "buffer": 0,
      "byteLength": 2560,
      "byteOffset": 65904,
      "byteStride": 16,
      "name": "floatBufferViews"
    }
  ],
  "buffers": [
    {
      "byteLength": 68464,
      "uri": "scene.bin"
    }
  ],
  "extensionsUsed": [
    "KHR_materials_unlit"
  ],
  "images": [
    {
      "uri": "textures/Giraffe_2_baseColor.png"
    }
  ],
  "materials": [
    {
      "doubleSided": true,
      "extensions": {
        "KHR_materials_unlit": {}
      },
      "name": "Giraffe_2",
      "pbrMetallicRoughness": {
        "baseColorTexture": {
          "index": 0
        },
        "metallicFactor": 0.0
      }
    }
  ],
  "meshes": [
    {
      "name": "Object_0",
      "primitives": [
        {
          "attributes": {
            "JOINTS_0": 13,
            "NORMAL": 1,
            "POSITION": 0,
            "TEXCOORD_0": 2,
            "WEIGHTS_0": 14
          },
          "indices": 3,
          "material": 0,
          "mode": 4
        }
      ]
    },
    {
      "name": "Object_1",
      "primitives": [
        {
          "attributes": {
            "NORMAL": 5,
            "POSITION": 4,
            "TEXCOORD_0": 6
          },
          "indices": 7,
          "material": 0,
          "mode": 4
        }
      ]
    },
    {
      "name": "Object_2",
      "primitives": [
        {
          "attributes": {
            "NORMAL": 9,
            "POSITION": 8,
            "TEXCOORD_0": 10
          },
          "indices": 11,
          "material": 0,
          "mode": 4
        }
      ]
    }
  ],
  "nodes": [
    {
      "children": [
        1
      ],
      "matrix": [
        1.0,
        0.0,
        0.0,
        0.0,
        0.0,
        2.220446049250313e-16,
        -1.0,
        0.0,
        0.0,
        1.0,
        2.220446049250313e-16,
        0.0,
        0.0,
        0.0,
        0.0,
        1.0
      ],
      "name": "Sketchfab_model"
    },
    {
      "children": [
        2
      ],
      "name": "root"
    },
    {
      "children": [
        3
      ],
      "matrix": [
        1.0,
        0.0,
        0.0,
        0.0,
        0.0,
        2.220446049250313e-16,
        1.0,
        0.0,
        0.0,
        -1.0,
        2.220446049250313e-16,
        0.0,
        0.0,
        0.0,
        0.0,
        1.0
      ],
      "name": "GLTF_SceneRootNode"
    },
    {
      "children": [
        4
      ],
      "name": "Giraffe Armature_20"
    },
    {
      "children": [
        5,
        7,
        6
      ],
      "name": "GLTF_created_0"
    },
    {
      "children": [
        8
      ],
      "name": "GLTF_created_0_rootJoint"
    },
    {
      "name": "Giraffe_19"
    },
    {
      "mesh": 0,
      "name": "Object_7",
      "skin": 0
    },
    {
      "children": [
        9,
        22,
        25
      ],
      "name": "Back-2_18",
      "rotation": [
        0.727898359298706,
        -1.936610221416491e-14,
        -1.9366164894603008e-14,
        0.6856850385665894
      ],
      "scale": [
        1.0,
        1.0,
        1.0000030994415283
      ],
      "translation": [
        -3.759860011222248e-23,
        -8.89184614827343e-10,
        -0.13237524032592773
      ]
    },
    {
      "children": [
        10,
        16,
        19
      ],
      "name": "Back-1_11",
      "rotation": [
        -0.34572750329971313,
        2.575969832948645e-14,
        8.703730248191873e-15,
        0.9383350014686584
      ],
      "translation": [
        5.434155120314514e-24,
        0.1369149088859558,
        -3.774526802224898e-10
      ]
    },
    {
      "children": [
        11
      ],
      "name": "Neck_4",
      "rotation": [
        -0.26940929889678955,
        -0.17297010123729706,
        0.1301053911447525,
        0.9383882880210876
      ],
      "scale": [
        1.0,
        0.9999997615814209,
        0.9999998211860657
      ],
      "translation": [
        1.7763568394002505e-15,
        0.15087176859378815,
        -7.677611435497056e-09
      ]
    },
    {
      "children": [
        12,
        14
      ],
      "name": "Head_3",
      "rotation": [
        0.6910680532455444,
        -1.747423254983005e-07,
        3.0306188669726453e-09,
        0.7227897047996521
      ],
      "translation": [
        3.7252767537410136e-09,
        0.34829816222190857,
        2.3650882141623697e-08
      ]
    },
    {
      "children": [
        13
      ],
      "matrix": [
        0.9999999999999716,
        8.415762842457273e-15,
        -2.3841827509247922e-07,
        0.0,
        -2.262802842477737e-07,
        -0.31499663350792445,
        -0.9490895226506156,
        0.0,
        -7.510119477997144e-08,
        0.9490924643072406,
        -0.3149976098245888,
        0.0,
        1.1175870895385742e-07,
        -0.10796023905277252,
        0.4657229781150818,
        1.0
      ],
      "name": "Giraffe Ears_1"
    },
    {
      "mesh": 1,
      "name": "Object_13"
    },
    {
      "children": [
        15
      ],
      "matrix": [
        0.9999999999999716,
        8.415762842457273e-15,
        -2.3841827509247922e-07,
        0.0,
        -2.262802842477737e-07,
        -0.31499663350792445,
        -0.9490895226506156,
        0.0,
        -7.510119477997144e-08,
        0.9490924643072406,
        -0.3149976098245888,
        0.0,
        1.1175870895385742e-07,
        -0.10796023905277252,
        0.4657229781150818,
        1.0
      ],
      "name": "Giraffe Horns_2"
    },
    {
      "mesh": 2,
      "name": "Object_15"
    },
    {
      "children": [
        17
      ],
      "name": "Leg-1-L_7",
      "rotation": [
        0.9227703809738159,
        -0.010394043289124966,
        -0.002869776450097561,
        0.3851994574069977
      ],
      "scale": [
        1.0000001192092896,
        0.9999999403953552,
        0.9999995231628418
      ],
      "translation": [
        0.06667562574148178,
        0.01846185512840748,
        0.10013622045516968
      ]
    },
    {
      "children": [
        18
      ],
      "name": "Leg-2-L_6",
      "rotation": [
        -0.10883953422307968,
        0.007536488119512796,
        -0.0077118780463933945,
        0.9940008521080017
      ],
      "scale": [
        0.9999998807907104,
        0.9999997615814209,
        0.9999998211860657
      ],
      "translation": [
        -6.3984213483081476e-09,
        0.20791380107402802,
        -1.0731522337437127e-08
      ]
    },
    {
      "name": "Foot-Front-L_5",
      "rotation": [
        -0.1162823960185051,
        -2.053064385165726e-09,
        1.51779033785715e-09,
        0.9932162165641785
      ],
      "scale": [
        0.9999999403953552,
        1.0,
        0.9999999403953552
      ],
      "translation": [
        -1.3863099557198666e-09,
        0.13999831676483154,
        1.5031519140507044e-08
      ]
    },
    {
      "children": [
        20
      ],
      "name": "Leg-1-R_10",
      "rotation": [
        0.9227703809738159,
        0.010394043289124966,
        0.002869776450097561,
        0.3851994574069977
      ],
      "scale": [
        1.0000001192092896,
        0.9999999403953552,
        0.9999995231628418
      ],
      "translation": [
        -0.06667562574148178,
        0.01846185512840748,
        0.10013622045516968
      ]
    },
    {
      "children": [
        21
      ],
      "name": "Leg-2-R_9",
      "rotation": [
        -0.10883953422307968,
        -0.007536488119512796,
        0.0077118780463933945,
        0.9940008521080017
      ],
      "scale": [
        0.9999998807907104,
        0.9999997615814209,
        0.9999998211860657
      ],
      "translation": [
        6.3984213483081476e-09,
        0.20791380107402802,
        -1.0731522337437127e-08
      ]
    },
    {
      "name": "Foot-Front-R_8",
      "rotation": [
        -0.1162823960185051,
        2.053064385165726e-09,
        -1.51779033785715e-09,
        0.9932162165641785
      ],
      "scale": [
        0.9999999403953552,
        1.0,
        0.9999999403953552
      ],
      "translation": [
        1.3863099557198666e-09,
        0.13999831676483154,
        1.5031519140507044e-08
      ]
    },
    {
      "children": [
        23
      ],
      "name": "Leg-3-L_14",
      "rotation": [
        0.7328883409500122,
        0.005964233539998531,
        -0.0005196762504056096,
        0.6803226470947266
      ],
      "scale": [
        0.9999999403953552,
        1.0,
        0.9999998807907104
      ],
      "translation": [
        0.06738495081663132,
        0.015805020928382874,
        0.07618318498134613
      ]
    },
    {
      "children": [
        24
      ],
      "name": "Leg-4-L_13",
      "rotation": [
        -0.10908514261245728,
        -0.00417026923969388,
        0.004295460879802704,
        0.9940143823623657
      ],
      "scale": [
        0.9999998807907104,
        1.0,
        0.9999999403953552
      ],
      "translation": [
        3.4924596548080444e-10,
        0.20790882408618927,
        1.2631062418222427e-08
      ]
    },
    {
      "name": "Foot-Rear-L_12",
      "rotation": [
        -0.115562804043293,
        -0.027126207947731018,
        0.02492465451359749,
        0.9926168322563171
      ],
      "scale": [
        1.0000001192092896,
        0.9999998807907104,
        1.0000001192092896
      ],
      "translation": [
        1.3507778007237903e-08,
        0.13999831676483154,
        -9.854022486877057e-09
      ]
    },
    {
      "children": [
        26
      ],
      "name": "Leg-3-R_17",
      "rotation": [
        0.7328883409500122,
        -0.005964233539998531,
        0.0005196762504056096,
        0.6803226470947266
      ],
      "scale": [
        0.9999999403953552,
        1.0,
        0.9999998807907104
      ],
      "translation": [
        -0.06738495081663132,
        0.015805022791028023,
        0.07618318498134613
      ]
    },
    {
      "children": [
        27
      ],
      "name": "Leg-4-R_16",
      "rotation": [
        -0.10908514261245728,
        0.00417026923969388,
        -0.004295460879802704,
        0.9940143823623657
      ],
      "scale": [
        0.9999998807907104,
        1.0,
        0.9999999403953552
      ],
      "translation": [
        -3.4924596548080444e-10,
        0.20790882408618927,
        1.2631062418222427e-08
      ]
    },
    {
      "name": "Foot-Rear-R_15",
      "rotation": [
        -0.115562804043293,
        0.027126207947731018,
        -0.02492465451359749,
        0.9926168322563171
      ],
      "scale": [
        1.0000001192092896,
        0.9999998807907104,
        1.0000001192092896
      ],
      "translation": [
        -1.3507778007237903e-08,
        0.13999831676483154,
        -9.854022486877057e-09
      ]
    }
  ],
  "samplers": [
    {
      "magFilter": 9728,
      "minFilter": 9728,
      "wrapS": 10497,
      "wrapT": 10497
    }
  ],
  "scene": 0,
  "scenes": [
    {
      "name": "Sketchfab_Scene",
      "nodes": [
        0
      ]
    }
  ],
  "skins": [
    {
      "inverseBindMatrices": 12,
      "joints": [
        5,
        8,
        9,
        10,
        11,
        16,
        17,
        18,
        19,
        20,
        21,
        22,
        23,
        24,
        25,
        26,
        27
      ],
      "skeleton": 5
    }
  ],
  "textures": [
    {
      "sampler": 0,
      "source": 0
    }
  ]
}
