{
  "accessors": [
    {
      "bufferView": 2,
      "componentType": 5126,
      "count": 1208,
      "max": [
        0.31891098618507385,
        0.281825989484787,
        1.0981190204620361
      ],
      "min": [
        -0.34290701150894165,
        -0.48235800862312317,
        -0.007242999970912933
      ],
      "type": "VEC3"
    },
    {
      "bufferView": 2,
      "byteOffset": 14496,
      "componentType": 5126,
      "count": 1208,
      "max": [
        0.9995754361152649,
        0.999634325504303,
        0.9917426705360413
      ],
      "min": [
        -0.9988862872123718,
        -0.9986678957939148,
        -0.9994112253189087
      ],
      "type": "VEC3"
    },
    {
      "bufferView": 1,
      "componentType": 5126,
      "count": 1208,
      "max": [
        2.914099931716919,
        2.992000102996826
      ],
      "min": [
        -0.08110000193119049,
        -0.9229999780654907
      ],
      "type": "VEC2"
    },
    {
      "bufferView": 0,
      "componentType": 5125,
      "count": 5802,
      "type": "SCALAR"
    },
    {
      "bufferView": 2,
      "byteOffset": 28992,
      "componentType": 5126,
      "count": 46,
      "max": [
        0.047237999737262726,
        -0.38911300897598267,
        0.9042199850082397
      ],
      "min": [
        -0.18823400139808655,
        -0.5027400255203247,
        0.7517189979553223
      ],
      "type": "VEC3"
    },
    {
      "bufferView": 2,
      "byteOffset": 29544,
      "componentType": 5126,
      "count": 46,
      "max": [
        0.9426062107086182,
        0.08399709314107895,
        0.9079278707504272
      ],
      "min": [
        -0.9964655637741089,
        -0.9634625911712646,
        -0.9965583682060242
      ],
      "type": "VEC3"
    },
    {
      "bufferView": 1,
      "byteOffset": 9664,
      "componentType": 5126,
      "count": 46,
      "max": [
        -0.05719999969005585,
        1.9189000129699707
      ],
      "min": [
        -0.9789999723434448,
        0.9980999827384949
      ],
      "type": "VEC2"
    },
    {
      "bufferView": 0,
      "byteOffset": 23208,
      "componentType": 5125,
      "count": 216,
      "type": "SCALAR"
    }
  ],
  "asset": {
    "extras": {
      "author": "Kyle.withem (https://sketchfab.com/Kyle.withem)",
      "license": "CC-BY-4.0 (http://creativecommons.org/licenses/by/4.0/)",
      "source": "https://sketchfab.com/3d-models/gloria-from-madagascar-09e59c0132f24be68090ca064b6c0e4e",
      "title": "gloria from Madagascar"
    },
    "generator": "Sketchfab-14.64.0",
    "version": "2.0"
  },
  "bufferViews": [
    {
      "buffer": 0,
      "byteLength": 24072,
      "name": "floatBufferViews",
      "target": 34963
    },
    {
      "buffer": 0,
      "byteLength": 10032,
      "byteOffset": 24072,
      "byteStride": 8,
      "name": "floatBufferViews",
      "target": 34962
    },
    {
      "buffer": 0,
      "byteLength": 30096,
      "byteOffset": 34104,
      "byteStride": 12,
      "name": "floatBufferViews",
      "target": 34962
    }
  ],
  "buffers": [
    {
      "byteLength": 64200,
      "uri": "scene.bin"
    }
  ],
  "images": [
    {
      "uri": "textures/mat0_baseColor.png"
    },
    {
      "uri": "textures/mat0.001_baseColor.png"
    }
  ],
  "materials": [
    {
      "doubleSided": true,
      "name": "mat0",
      "pbrMetallicRoughness": {
        "baseColorTexture": {
          "index": 0
        },
        "metallicFactor": 0.0
      }
    },
    {
      "doubleSided": true,
      "name": "mat0.001",
      "pbrMetallicRoughness": {
        "baseColorTexture": {
          "index": 1
        },
        "metallicFactor": 0.0
      }
    }
  ],
  "meshes": [
    {
      "name": "Object_0",
      "primitives": [
        {
          "attributes": {
            "NORMAL": 1,
            "POSITION": 0,
            "TEXCOORD_0": 2
          },
          "indices": 3,
          "material": 0,
          "mode": 4
        }
      ]
    },
    {
      "name": "Object_1",
      "primitives": [
        {
          "attributes": {
            "NORMAL": 5,
            "POSITION": 4,
            "TEXCOORD_0": 6
          },
          "indices": 7,
          "material": 1,
          "mode": 4
        }
      ]
    }
  ],
  "nodes": [
    {
      "children": [
        1
      ],
      "matrix": [
        1.0,
        0.0,
        0.0,
        0.0,
        0.0,
        2.220446049250313e-16,
        -1.0,
        0.0,
        0.0,
        1.0,
        2.220446049250313e-16,
        0.0,
        0.0,
        0.0,
        0.0,
        1.0
      ],
      "name": "Sketchfab_model"
    },
    {
      "children": [
        2,
        3
      ],
      "name": "gloria.obj.cleaner.materialmerger.gles"
    },
    {
      "mesh": 0,
      "name": "Object_2"
    },
    {
      "mesh": 1,
      "name": "Object_3"
    }
  ],
  "samplers": [
    {
      "magFilter": 9729,
      "minFilter": 9987,
      "wrapS": 10497,
      "wrapT": 10497
    }
  ],
  "scene": 0,
  "scenes": [
    {
      "name": "Sketchfab_Scene",
      "nodes": [
        0
      ]
    }
  ],
  "textures": [
    {
      "sampler": 0,
      "source": 0
    },
    {
      "sampler": 0,
      "source": 1
    }
  ]
}
