{
  "accessors": [
    {
      "bufferView": 2,
      "componentType": 5126,
      "count": 41,
      "max": [
        38.68040084838867,
        -25.648799896240234,
        123.52790069580078
      ],
      "min": [
        -38.680301666259766,
        -45.05390167236328,
        89.86289978027344
      ],
      "type": "VEC3"
    },
    {
      "bufferView": 2,
      "byteOffset": 492,
      "componentType": 5126,
      "count": 41,
      "max": [
        0.3551109731197357,
        -0.8177253007888794,
        0.49287426471710205
      ],
      "min": [
        -0.3551109731197357,
        -0.9118025302886963,
        0.4013788402080536
      ],
      "type": "VEC3"
    },
    {
      "bufferView": 1,
      "componentType": 5126,
      "count": 41,
      "max": [
        0.9970999956130981,
        0.9555000066757202
      ],
      "min": [
        0.022600000724196434,
        0.049800001084804535
      ],
      "type": "VEC2"
    },
    {
      "bufferView": 0,
      "componentType": 5125,
      "count": 144,
      "type": "SCALAR"
    },
    {
      "bufferView": 2,
      "byteOffset": 984,
      "componentType": 5126,
      "count": 2335,
      "max": [
        62.722900390625,
        91.87650299072266,
        147.76919555664063
      ],
      "min": [
        -62.722900390625,
        -97.24320220947266,
        15.599699974060059
      ],
      "type": "VEC3"
    },
    {
      "bufferView": 2,
      "byteOffset": 29004,
      "componentType": 5126,
      "count": 2335,
      "max": [
        1.0,
        0.9999380111694336,
        0.9999998807907104
      ],
      "min": [
        -1.0,
        -0.9999995231628418,
        -0.9999567270278931
      ],
      "type": "VEC3"
    },
    {
      "bufferView": 1,
      "byteOffset": 328,
      "componentType": 5126,
      "count": 2335,
      "max": [
        0.9940999746322632,
        0.9959999918937683
      ],
      "min": [
        0.004600000102072954,
        0.005900000222027302
      ],
      "type": "VEC2"
    },
    {
      "bufferView": 0,
      "byteOffset": 576,
      "componentType": 5125,
      "count": 9999,
      "type": "SCALAR"
    },
    {
      "bufferView": 2,
      "byteOffset": 57024,
      "componentType": 5126,
      "count": 544,
      "max": [
        57.578399658203125,
        87.48619842529297,
        128.94810485839844
      ],
      "min": [
        -57.84479904174805,
        -88.95120239257813,
        15.608799934387207
      ],
      "type": "VEC3"
    },
    {
      "bufferView": 2,
      "byteOffset": 63552,
      "componentType": 5126,
      "count": 544,
      "max": [
        0.9996234774589539,
        0.9998588562011719,
        0.9972015619277954
      ],
      "min": [
        -0.9992997646331787,
        -0.9991798400878906,
        -0.9999567270278931
      ],
      "type": "VEC3"
    },
    {
      "bufferView": 1,
      "byteOffset": 19008,
      "componentType": 5126,
      "count": 544,
      "max": [
        0.9945999979972839,
        0.9939000010490417
      ],
      "min": [
        0.019200000911951065,
        0.005900000222027302
      ],
      "type": "VEC2"
    },
    {
      "bufferView": 0,
      "byteOffset": 40572,
      "componentType": 5125,
      "count": 2229,
      "type": "SCALAR"
    },
    {
      "bufferView": 2,
      "byteOffset": 70080,
      "componentType": 5126,
      "count": 64,
      "max": [
        43.790000915527344,
        -88.59559631347656,
        64.07369995117188
      ],
      "min": [
        -43.790000915527344,
        -91.51239776611328,
        51.88750076293945
      ],
      "type": "VEC3"
    },
    {
      "bufferView": 2,
      "byteOffset": 70848,
      "componentType": 5126,
      "count": 64,
      "max": [
        0.4840151071548462,
        -0.8616970181465149,
        0.20689329504966736
      ],
      "min": [
        -0.4961157441139221,
        -0.9990292191505432,
        -0.3921204209327698
      ],
      "type": "VEC3"
    },
    {
      "bufferView": 1,
      "byteOffset": 23360,
      "componentType": 5126,
      "count": 64,
      "max": [
        1.9375,
        1.9501999616622925
      ],
      "min": [
        1.0771000385284424,
        1.0683000087738037
      ],
      "type": "VEC2"
    },
    {
      "bufferView": 0,
      "byteOffset": 49488,
      "componentType": 5125,
      "count": 252,
      "type": "SCALAR"
    },
    {
      "bufferView": 2,
      "byteOffset": 71616,
      "componentType": 5126,
      "count": 1150,
      "max": [
        48.22930145263672,
        67.78919982910156,
        45.712799072265625
      ],
      "min": [
        -48.22930145263672,
        -67.78919982910156,
        0.08179999887943268
      ],
      "type": "VEC3"
    },
    {
      "bufferView": 2,
      "byteOffset": 85416,
      "componentType": 5126,
      "count": 1150,
      "max": [
        1.0,
        1.0,
        1.0
      ],
      "min": [
        -1.0,
        -1.0,
        -1.0
      ],
      "type": "VEC3"
    },
    {
      "bufferView": 1,
      "byteOffset": 23872,
      "componentType": 5126,
      "count": 1150,
      "max": [
        0.9980000257492065,
        0.9962000250816345
      ],
      "min": [
        0.0020000000949949026,
        0.007799999788403511
      ],
      "type": "VEC2"
    },
    {
      "bufferView": 0,
      "byteOffset": 50496,
      "componentType": 5125,
      "count": 5760,
      "type": "SCALAR"
    },
    {
      "bufferView": 2,
      "byteOffset": 99216,
      "componentType": 5126,
      "count": 53,
      "max": [
        40.4833984375,
        85.06790161132813,
        53.8125
      ],
      "min": [
        -40.4833984375,
        77.63510131835938,
        37.26089859008789
      ],
      "type": "VEC3"
    },
    {
      "bufferView": 2,
      "byteOffset": 99852,
      "componentType": 5126,
      "count": 53,
      "max": [
        0.9841282367706299,
        0.9560374617576599,
        0.9139091968536377
      ],
      "min": [
        -0.9859903454780579,
        0.15199850499629974,
        -0.7122707366943359
      ],
      "type": "VEC3"
    },
    {
      "bufferView": 1,
      "byteOffset": 33072,
      "componentType": 5126,
      "count": 53,
      "max": [
        1.7832000255584717,
        -0.005900000222027302
      ],
      "min": [
        1.1992000341415405,
        -0.9901999831199646
      ],
      "type": "VEC2"
    },
    {
      "bufferView": 0,
      "byteOffset": 73536,
      "componentType": 5125,
      "count": 168,
      "type": "SCALAR"
    }
  ],
  "asset": {
    "extras": {
      "author": "Neut2000 (https://sketchfab.com/Neut2000)",
      "license": "CC-BY-4.0 (http://creativecommons.org/licenses/by/4.0/)",
      "source": "https://sketchfab.com/3d-models/disney-infinity-luigi-3b60379688dd4abc8efd0522fd818904",
      "title": "Disney Infinity Luigi"
    },
    "generator": "Sketchfab-12.67.0",
    "version": "2.0"
  },
  "bufferViews": [
    {
      "buffer": 0,
      "byteLength": 74208,
      "name": "floatBufferViews",
      "target": 34963
    },
    {
      "buffer": 0,
      "byteLength": 33496,
      "byteOffset": 74208,
      "byteStride": 8,
      "name": "floatBufferViews",
      "target": 34962
    },
    {
      "buffer": 0,
      "byteLength": 100488,
      "byteOffset": 107704,
      "byteStride": 12,
      "name": "floatBufferViews",
      "target": 34962
    }
  ],
  "buffers": [
    {
      "byteLength": 208192,
      "uri": "scene.bin"
    }
  ],
  "images": [
    {
      "uri": "textures/Material__55a_baseColor.png"
    },
    {
      "uri": "textures/Material__56a_baseColor.png"
    },
    {
      "uri": "textures/Material__57a_baseColor.png"
    },
    {
      "uri": "textures/Material__58a_baseColor.png"
    },
    {
      "uri": "textures/Material__59a_baseColor.png"
    }
  ],
  "materials": [
    {
      "doubleSided": true,
      "emissiveTexture": {
        "index": 0
      },
      "name": "Material__55a",
      "pbrMetallicRoughness": {
        "baseColorTexture": {
          "index": 0
        },
        "metallicFactor": 0.0
      }
    },
    {
      "doubleSided": true,
      "emissiveTexture": {
        "index": 1
      },
      "name": "Material__56a",
      "pbrMetallicRoughness": {
        "baseColorTexture": {
          "index": 1
        },
        "metallicFactor": 0.0
      }
    },
    {
      "doubleSided": true,
      "emissiveTexture": {
        "index": 2
      },
      "name": "Material__57a",
      "pbrMetallicRoughness": {
        "baseColorTexture": {
          "index": 2
        },
        "metallicFactor": 0.0
      }
    },
    {
      "doubleSided": true,
      "emissiveTexture": {
        "index": 3
      },
      "name": "Material__58a",
      "pbrMetallicRoughness": {
        "baseColorTexture": {
          "index": 3
        },
        "metallicFactor": 0.0
      }
    },
    {
      "doubleSided": true,
      "emissiveTexture": {
        "index": 4
      },
      "name": "Material__59a",
      "pbrMetallicRoughness": {
        "baseColorTexture": {
          "index": 4
        },
        "metallicFactor": 0.0
      }
    }
  ],
  "meshes": [
    {
      "name": "Object_0",
      "primitives": [
        {
          "attributes": {
            "NORMAL": 1,
            "POSITION": 0,
            "TEXCOORD_0": 2
          },
          "indices": 3,
          "material": 0,
          "mode": 4
        }
      ]
    },
    {
      "name": "Object_1",
      "primitives": [
        {
          "attributes": {
            "NORMAL": 5,
            "POSITION": 4,
            "TEXCOORD_0": 6
          },
          "indices": 7,
          "material": 1,
          "mode": 4
        }
      ]
    },
    {
      "name": "Object_2",
      "primitives": [
        {
          "attributes": {
            "NORMAL": 9,
            "POSITION": 8,
            "TEXCOORD_0": 10
          },
          "indices": 11,
          "material": 1,
          "mode": 4
        }
      ]
    },
    {
      "name": "Object_3",
      "primitives": [
        {
          "attributes": {
            "NORMAL": 13,
            "POSITION": 12,
            "TEXCOORD_0": 14
          },
          "indices": 15,
          "material": 2,
          "mode": 4
        }
      ]
    },
    {
      "name": "Object_4",
      "primitives": [
        {
          "attributes": {
            "NORMAL": 17,
            "POSITION": 16,
            "TEXCOORD_0": 18
          },
          "indices": 19,
          "material": 3,
          "mode": 4
        }
      ]
    },
    {
      "name": "Object_5",
      "primitives": [
        {
          "attributes": {
            "NORMAL": 21,
            "POSITION": 20,
            "TEXCOORD_0": 22
          },
          "indices": 23,
          "material": 4,
          "mode": 4
        }
      ]
    }
  ],
  "nodes": [
    {
      "children": [
        1
      ],
      "matrix": [
        1.0,
        0.0,
        0.0,
        0.0,
        0.0,
        2.220446049250313e-16,
        -1.0,
        0.0,
        0.0,
        1.0,
        2.220446049250313e-16,
        0.0,
        0.0,
        0.0,
        0.0,
        1.0
      ],
      "name": "Sketchfab_model"
    },
    {
      "children": [
        2,
        3,
        4,
        5,
        6,
        7
      ],
      "name": "Luigi.obj.cleaner.materialmerger.gles"
    },
    {
      "mesh": 0,
      "name": "Object_2"
    },
    {
      "mesh": 1,
      "name": "Object_3"
    },
    {
      "mesh": 2,
      "name": "Object_4"
    },
    {
      "mesh": 3,
      "name": "Object_5"
    },
    {
      "mesh": 4,
      "name": "Object_6"
    },
    {
      "mesh": 5,
      "name": "Object_7"
    }
  ],
  "samplers": [
    {
      "magFilter": 9729,
      "minFilter": 9987,
      "wrapS": 10497,
      "wrapT": 10497
    }
  ],
  "scene": 0,
  "scenes": [
    {
      "name": "Sketchfab_Scene",
      "nodes": [
        0
      ]
    }
  ],
  "textures": [
    {
      "sampler": 0,
      "source": 0
    },
    {
      "sampler": 0,
      "source": 1
    },
    {
      "sampler": 0,
      "source": 2
    },
    {
      "sampler": 0,
      "source": 3
    },
    {
      "sampler": 0,
      "source": 4
    }
  ]
}
